<svg xmlns="http://www.w3.org/2000/svg" width="25.193" height="20" viewBox="0 0 25.193 20">
  <path id="ic_medium" d="M2.987,7.08a.975.975,0,0,0-.318-.823L.318,3.423V3h7.3l5.645,12.381L18.23,3h6.963v.423L23.182,5.351a.589.589,0,0,0-.224.565V20.085a.588.588,0,0,0,.224.564l1.964,1.928V23h-9.88v-.423L17.3,20.6c.2-.2.2-.258.2-.564V8.585L11.844,22.954H11.08L4.493,8.585v9.63a1.329,1.329,0,0,0,.364,1.1L7.5,22.53v.424H0V22.53l2.646-3.21a1.279,1.279,0,0,0,.341-1.1V7.08Z" transform="translate(0 -3)" fill="#3040c4" fill-rule="evenodd"/>
</svg>
